# xmcd
#
# Track frame offsets:
#	150
#	11776
#	32402
#	45303
#	63304
#	82729
#	96492
#	110892
#	127543
#	143931
#	164631
#	179482
#
# Disc length: 2669 seconds
#
# Revision: 1
# Processed by: cddbd v1.5.1PL2 Copyright (c) Steve Scherf et al.
# Submitted via: audiograbber 1.83.01
#
DISCID=9a0a6b0c
DTITLE=DJALMA avec Coco Briaval  Gipsy Swing - Djalma Chante l'Amour,l'Amour
DYEAR=2005
DGENRE=Chanson
TTITLE0=L'Amour, l'Amour
TTITLE1=Les Fosses
TTITLE2=Pomme d'api
TTITLE3=Le lit anglais
TTITLE4=La valse à Lulu
TTITLE5=Le plafond du dortoir
TTITLE6=Partage
TTITLE7=La valse triste
TTITLE8=Apprends moi à nager
TTITLE9=Djalma Sütra
TTITLE10=Les rivières de Juillet
TTITLE11=Je n'oublie rien
EXTD=LEPM Réf - 0300107\nEnregistré et mixé au studio MGO\nPrise de son - Gérar
EXTD=d Thouret\nArrangements - Coco Brieval Gypsie Swing\nPhotos - Christiane L
EXTD=a Roche
EXTT0=
EXTT1=
EXTT2=
EXTT3=
EXTT4=
EXTT5=
EXTT6=
EXTT7=
EXTT8=
EXTT9=
EXTT10=
EXTT11=
PLAYORDER=
